<svg width="1024" height="1024" viewBox="0 0 1024 1024" xmlns="http://www.w3.org/2000/svg">
<rect x="0" y="0" width="1024" height="1024" fill="#ABD0D6"/>

<g>
<polyline points="740,350 800,350 800,270 860,270" fill="none" stroke="#FFFFFF" stroke-width="4" stroke-linecap="round" stroke-linejoin="round"/>
<circle cx="740" cy="350" r="3.0" fill="#FFFFFF"/>
<circle cx="800" cy="350" r="3.0" fill="#FFFFFF"/>
<circle cx="800" cy="270" r="3.0" fill="#FFFFFF"/>
<circle cx="860" cy="270" r="3.0" fill="#FFFFFF"/>
<polyline points="300,350 240,350 240,270 180,270" fill="none" stroke="#FFFFFF" stroke-width="4" stroke-linecap="round" stroke-linejoin="round"/>
<circle cx="300" cy="350" r="3.0" fill="#FFFFFF"/>
<circle cx="240" cy="350" r="3.0" fill="#FFFFFF"/>
<circle cx="240" cy="270" r="3.0" fill="#FFFFFF"/>
<circle cx="180" cy="270" r="3.0" fill="#FFFFFF"/>
<polyline points="712,470 770,470 770,560 830,560" fill="none" stroke="#FFFFFF" stroke-width="4" stroke-linecap="round" stroke-linejoin="round"/>
<circle cx="712" cy="470" r="3.0" fill="#FFFFFF"/>
<circle cx="770" cy="470" r="3.0" fill="#FFFFFF"/>
<circle cx="770" cy="560" r="3.0" fill="#FFFFFF"/>
<circle cx="830" cy="560" r="3.0" fill="#FFFFFF"/>
<polyline points="340,470 280,470 280,560 220,560" fill="none" stroke="#FFFFFF" stroke-width="4" stroke-linecap="round" stroke-linejoin="round"/>
<circle cx="340" cy="470" r="3.0" fill="#FFFFFF"/>
<circle cx="280" cy="470" r="3.0" fill="#FFFFFF"/>
<circle cx="280" cy="560" r="3.0" fill="#FFFFFF"/>
<circle cx="220" cy="560" r="3.0" fill="#FFFFFF"/>

<circle cx="860" cy="270" r="7" fill="#FFFFFF"/>
<circle cx="180" cy="270" r="7" fill="#FFFFFF"/>
<circle cx="830" cy="560" r="7" fill="#FFFFFF"/>
<circle cx="220" cy="560" r="7" fill="#FFFFFF"/>


<g transform="translate(154.225,213.954) scale(0.18543)">
  <g transform="translate(0.000000,260.000000) scale(0.100000,-0.100000)" fill="#FFFFFF" stroke="none">
  <path d="M2598 2055 c-1 -2 -19 -6 -40 -9 -243 -38 -420 -266 -454 -582 -12
-114 -7 -301 11 -393 47 -242 171 -413 351 -481 77 -28 97 -32 209 -36 346
-12 567 201 612 591 9 79 9 232 0 320 -26 249 -143 448 -311 530 -92 45 -174
63 -285 63 -49 0 -91 -1 -93 -3z m153 -262 c49 -10 111 -77 132 -143 26 -84
32 -150 32 -335 0 -318 -31 -430 -135 -482 -88 -45 -188 -19 -239 62 -50 78
-66 181 -66 415 0 301 33 416 135 468 46 23 83 27 141 15z"/>
<path d="M1070 2019 c-47 -10 -96 -21 -110 -24 -14 -3 -41 -8 -60 -11 -66 -11
-65 -10 -65 -151 0 -147 -10 -138 120 -109 122 27 211 43 215 39 3 -2 5 -209
6 -459 l0 -454 -166 0 -165 0 0 -135 0 -135 509 2 510 3 0 130 0 130 -167 3
-167 2 0 595 0 595 -187 -1 c-143 -1 -208 -5 -273 -20z"/>
  </g>
</g>
<g transform="translate(834.225,213.954) scale(0.18543)">
  <g transform="translate(0.000000,260.000000) scale(0.100000,-0.100000)" fill="#FFFFFF" stroke="none">
  <path d="M1208 2055 c-1 -2 -19 -6 -40 -9 -243 -38 -420 -266 -454 -582 -12
-114 -7 -301 11 -393 47 -242 171 -413 351 -481 77 -28 97 -32 209 -36 346
-12 567 201 612 591 9 79 9 232 0 320 -26 249 -143 448 -311 530 -92 45 -174
63 -285 63 -49 0 -91 -1 -93 -3z m153 -262 c49 -10 111 -77 132 -143 26 -84
32 -150 32 -335 0 -318 -31 -430 -135 -482 -88 -45 -188 -19 -239 62 -50 78
-66 181 -66 415 0 301 33 416 135 468 46 23 83 27 141 15z"/>
<path d="M2460 2019 c-47 -10 -96 -21 -110 -24 -14 -3 -41 -8 -60 -11 -66 -11
-65 -10 -65 -151 0 -147 -10 -138 120 -109 122 27 211 43 215 39 3 -2 5 -209
6 -459 l0 -454 -166 0 -165 0 0 -135 0 -135 509 2 510 3 0 130 0 130 -167 3
-167 2 0 595 0 595 -187 -1 c-143 -1 -208 -5 -273 -20z"/>
  </g>
</g>

</g>

<g transform="translate(0.000000,1024.000000) scale(0.100000,-0.100000)">
<g fill="#1653B0" stroke="none">
<path d="M3740 8233 c-273 -41 -468 -138 -657 -324 -277 -274 -400 -659 -380
-1189 19 -501 122 -831 420 -1350 248 -430 308 -728 327 -1615 10 -472 28
-626 110 -940 159 -611 393 -994 608 -995 114 0 202 86 246 240 22 80 33 154
61 450 14 146 34 321 45 391 76 498 275 1075 453 1314 38 51 95 104 125 116
116 46 259 -90 397 -376 190 -393 312 -874 400 -1565 23 -183 50 -303 83 -373
52 -112 159 -195 263 -205 264 -25 554 603 643 1388 30 265 37 420 37 794 -1
501 14 670 79 908 43 156 74 231 212 517 130 269 179 402 238 641 93 378 112
821 49 1147 -55 289 -185 557 -346 715 -227 225 -524 330 -888 315 -210 -9
-316 -36 -625 -159 -215 -86 -334 -118 -466 -125 -181 -10 -285 13 -574 129
-307 124 -463 159 -694 157 -78 -1 -152 -3 -166 -6z m2692 -103 c333 -32 598
-178 758 -418 260 -387 321 -996 164 -1632 -48 -196 -103 -339 -244 -635 -66
-138 -135 -294 -154 -348 -103 -283 -143 -581 -133 -994 19 -794 -94 -1475
-314 -1903 -97 -188 -186 -286 -258 -284 -47 2 -111 35 -145 75 -67 80 -93
175 -131 489 -37 305 -61 462 -101 646 -125 585 -330 1069 -525 1238 -124 108
-279 108 -399 0 -168 -152 -377 -660 -478 -1159 -42 -208 -67 -387 -97 -690
-38 -387 -53 -458 -117 -530 -52 -59 -85 -69 -137 -43 -112 55 -240 286 -359
648 -76 228 -122 470 -143 740 -11 147 -9 193 17 579 19 284 18 557 -2 713
-33 256 -110 494 -226 703 -34 61 -75 135 -91 165 l-31 55 115 -110 c63 -60
145 -133 183 -162 64 -47 256 -163 271 -163 4 0 -28 35 -71 78 -132 131 -262
291 -363 442 -98 147 -236 406 -286 538 -16 39 -32 72 -37 72 -5 0 -7 4 -4 8
3 5 -10 53 -28 108 -19 54 -39 125 -46 156 -7 32 -16 56 -19 54 -3 -2 -6 10
-6 27 -1 18 -9 87 -19 155 -15 99 -18 158 -13 305 6 211 24 307 86 471 52 139
115 240 215 344 188 196 386 271 686 259 176 -7 336 -47 598 -151 106 -42 246
-91 310 -108 104 -27 133 -31 257 -31 198 -1 302 26 632 159 239 97 343 123
563 143 8 0 63 -4 122 -9z"/>
<path d="M5740 7873 c-14 -2 -95 -24 -180 -49 -268 -76 -361 -95 -516 -101
-158 -6 -239 6 -396 58 -49 17 -92 28 -94 26 -3 -3 12 -18 33 -34 192 -151
520 -239 797 -213 208 20 431 99 519 185 45 44 51 94 15 119 -22 15 -113 20
-178 9z"/>
</g>
<g fill="#FFFFFF" stroke="none">
<path d="M3787 8119 c-103 -11 -188 -33 -266 -69 -64 -30 -171 -102 -203 -137
-21 -23 -37 -38 -66 -66 -81 -76 -177 -250 -225 -407 -121 -396 -68 -868 155
-1362 12 -26 25 -45 29 -42 5 3 6 -1 3 -9 -4 -12 18 -59 107 -226 13 -24 34
-54 45 -67 12 -12 20 -25 17 -27 -8 -8 128 -199 206 -290 94 -110 169 -187
182 -187 5 0 9 -8 9 -17 0 -10 21 -36 47 -60 26 -23 45 -45 41 -48 -11 -12
-267 133 -303 171 -24 25 -135 115 -135 110 0 -4 -6 -1 -14 6 -8 7 -12 16 -9
21 2 4 -3 7 -11 7 -17 0 -22 -30 -7 -46 40 -44 146 -286 184 -420 90 -319 104
-549 66 -1088 -23 -331 -22 -525 6 -731 60 -453 258 -988 421 -1140 57 -53 67
-59 100 -58 47 1 86 33 117 95 35 70 52 156 71 363 71 746 167 1176 360 1605
102 227 212 377 311 426 61 29 194 27 258 -5 129 -64 270 -278 394 -596 57
-148 59 -154 106 -315 92 -314 139 -550 191 -970 42 -330 41 -325 68 -410 36
-113 88 -172 175 -200 39 -12 47 -11 79 6 20 10 56 42 79 69 42 49 135 191
135 207 0 4 12 32 26 61 84 171 162 441 208 723 60 368 77 622 74 1124 -2 385
7 493 58 730 45 205 81 299 251 650 175 363 255 639 294 1019 15 146 6 499
-15 601 -28 139 -47 215 -58 227 -6 7 -8 13 -5 13 10 0 -39 133 -78 210 -34
69 -84 148 -110 177 -5 6 -21 26 -35 44 -47 63 -115 117 -245 197 -139 84
-357 142 -540 142 -92 0 -245 -24 -347 -54 -121 -35 -284 -102 -267 -110 8 -3
4 -3 -7 -1 -12 3 -28 0 -36 -8 -7 -7 -19 -12 -27 -9 -9 3 -11 0 -6 -8 6 -10 4
-12 -8 -7 -9 3 -23 0 -31 -8 -7 -8 -16 -12 -18 -9 -3 2 -36 -6 -74 -20 -186
-66 -413 -84 -601 -47 -108 21 -205 54 -423 141 -273 109 -499 151 -703 129z
m2142 -253 c74 -67 -48 -186 -259 -254 -150 -49 -207 -57 -395 -57 -162 0
-191 3 -290 28 -60 15 -123 32 -140 38 -138 51 -325 172 -302 195 3 3 48 -8
99 -24 136 -45 173 -53 271 -62 166 -14 362 18 652 105 143 42 205 54 277 52
49 -2 72 -8 87 -21z"/>
</g>
</g>

<g transform="translate(409,306) scale(0.912863)">
<g transform="translate(0.000000,251.000000) scale(0.100000,-0.100000)" fill="#1653B0" stroke="none">
<path d="M17 2503 c-4 -3 -7 -557 -7 -1230 l0 -1223 443 1 442 1 133 138 132
138 0 324 -1 323 -125 133 -126 132 -319 0 -319 0 0 -455 0 -456 250 3 249 3
66 65 65 64 0 186 0 186 -63 62 -63 62 -112 0 -112 0 0 -80 0 -80 80 0 80 0 0
-135 0 -135 -135 0 -135 0 0 270 0 270 198 0 197 -1 78 -83 77 -84 0 -254 0
-253 -88 -88 -87 -87 -323 0 -322 0 0 1060 0 1060 333 0 332 0 78 -78 77 -77
0 -255 0 -255 -76 -82 -76 -83 -199 0 -199 0 0 280 0 281 132 -3 133 -3 3
-137 3 -138 -34 0 c-19 0 -55 -3 -81 -6 l-46 -7 0 -78 0 -79 113 0 112 0 63
60 62 60 0 191 0 190 -57 60 -56 59 -259 0 -258 0 0 -445 0 -445 318 0 319 0
126 128 127 127 0 330 -1 330 -119 123 -119 122 -449 0 c-247 0 -452 -3 -455
-7z"/>
<path d="M1267 2503 c-4 -3 -7 -219 -7 -480 l0 -473 -120 -127 c-66 -70 -120
-130 -120 -134 0 -5 54 -64 120 -132 l120 -125 0 -267 c0 -295 6 -337 63 -455
44 -88 151 -197 237 -239 97 -47 161 -61 280 -61 85 0 118 5 173 25 185 65
318 203 371 387 14 50 16 163 16 1066 0 912 -2 1010 -16 1016 -21 8 -1109 8
-1117 -1z m973 -1035 c0 -509 -4 -901 -10 -940 -26 -181 -146 -306 -323 -339
-160 -30 -336 46 -413 176 -60 103 -65 135 -71 460 l-6 300 -82 85 -83 85 83
89 c93 100 95 105 95 272 l0 94 125 0 125 0 0 -489 0 -489 -22 -6 c-13 -3 -47
-6 -75 -6 l-53 0 0 -52 c1 -89 18 -195 41 -248 27 -63 94 -123 160 -145 74
-25 190 -18 254 16 61 31 120 105 139 174 17 60 22 366 18 1178 l-2 557 -305
0 -306 0 3 -87 3 -88 206 -3 207 -2 7 -428 c8 -448 2 -1075 -10 -1104 -4 -9
-27 -25 -51 -34 -82 -31 -156 2 -174 79 -4 20 -5 38 -2 41 3 4 34 6 69 6 l63
0 0 660 0 660 -210 0 -210 0 0 200 0 200 405 0 405 0 0 -872z"/>
</g>
</g>
</svg>
